HIERARCHY
ROOT RootJoint
{
    OFFSET   0.000000   0.000000   0.000000
    CHANNELS 6 Xposition Yposition Zposition Xrotation Yrotation Zrotation
    JOINT pelvis_lowerback
    {
        OFFSET   0.000000   0.093605   0.000000
        CHANNELS 3 Xrotation Yrotation Zrotation
        JOINT lowerback_torso
        {
            OFFSET   0.000000   0.100000   0.000000
            CHANNELS 3 Xrotation Yrotation Zrotation
            JOINT torso_head
            {
                OFFSET   0.000000   0.282350   0.000000
                CHANNELS 3 Xrotation Yrotation Zrotation
                End Site
                {
                    OFFSET   0.000000   0.192650   0.000000
                }
            }
            JOINT rTorso_Clavicle
            {
                OFFSET  -0.001000   0.157500   0.000000
                CHANNELS 3 Xrotation Yrotation Zrotation
                JOINT rShoulder
                {
                    OFFSET  -0.117647   0.000000   0.000000
                    CHANNELS 3 Xrotation Yrotation Zrotation
                    JOINT rElbow
                    {
                        OFFSET  -0.245000   0.000000   0.000000
                        CHANNELS 3 Xrotation Yrotation Zrotation
                        JOINT rWrist
                        {
                            OFFSET  -0.240000   0.000000   0.000000
                            CHANNELS 3 Xrotation Yrotation Zrotation
                            End Site
                            {
                                OFFSET  -0.116353  -0.002500   0.000000
                            }
                        }
                    }
                }
            }
            JOINT lTorso_Clavicle
            {
                OFFSET   0.001000   0.157500   0.000000
                CHANNELS 3 Xrotation Yrotation Zrotation
                JOINT lShoulder
                {
                    OFFSET   0.117647   0.000000   0.000000
                    CHANNELS 3 Xrotation Yrotation Zrotation
                    JOINT lElbow
                    {
                        OFFSET   0.245000   0.000000   0.000000
                        CHANNELS 3 Xrotation Yrotation Zrotation
                        JOINT lWrist
                        {
                            OFFSET   0.240000   0.000000   0.000000
                            CHANNELS 3 Xrotation Yrotation Zrotation
                            End Site
                            {
                                OFFSET   0.116353  -0.002500   0.000000
                            }
                        }
                    }
                }
            }
        }
    }
    JOINT rHip
    {
        OFFSET  -0.100000  -0.051395   0.000000
        CHANNELS 3 Xrotation Yrotation Zrotation
        JOINT rKnee
        {
            OFFSET   0.000000  -0.410000   0.000000
            CHANNELS 3 Xrotation Yrotation Zrotation
            JOINT rAnkle
            {
                OFFSET   0.000000  -0.390000   0.000000
                CHANNELS 3 Xrotation Yrotation Zrotation
                JOINT rToeJoint
                {
                    OFFSET   0.000000  -0.050000   0.130000
                    CHANNELS 3 Xrotation Yrotation Zrotation
                    End Site
                    {
                        OFFSET  -0.010000   0.002000   0.060000
                    }
                }
            }
        }
    }
    JOINT lHip
    {
        OFFSET   0.100000  -0.051395   0.000000
        CHANNELS 3 Xrotation Yrotation Zrotation
        JOINT lKnee
        {
            OFFSET   0.000000  -0.410000   0.000000
            CHANNELS 3 Xrotation Yrotation Zrotation
            JOINT lAnkle
            {
                OFFSET   0.000000  -0.390000   0.000000
                CHANNELS 3 Xrotation Yrotation Zrotation
                JOINT lToeJoint
                {
                    OFFSET   0.000000  -0.050000   0.130000
                    CHANNELS 3 Xrotation Yrotation Zrotation
                    End Site
                    {
                        OFFSET   0.010000   0.002000   0.060000
                    }
                }
            }
        }
    }
}
MOTION
Frames: 12
Frame Time:   0.008333
 -2.376719   0.925631   3.975860   0.000000   0.000000   0.000000   0.000000   0.000000   0.000000   0.000000   0.000000   0.000000   0.000000   0.000000   0.000000   0.000000   0.000000   0.000000   0.000000   0.000000   0.000000   0.000000   0.000000   0.000000   0.000000   0.000000   0.000000   0.000000   0.000000   0.000000   0.000000   0.000000   0.000000   0.000000   0.000000   0.000000   0.000000   0.000000   0.000000   0.000000   0.000000   0.000000   0.000000   0.000000   0.000000   0.000000   0.000000   0.000000   0.000000   0.000000   0.000000   0.000000   0.000000   0.000000   0.000000   0.000000   0.000000   0.000000   0.000000   0.000000   0.000000   0.000000   0.000000
 -2.376702   0.926375   3.975458   0.359324   0.143544  -0.033901  -0.487071   0.063334  -0.006039   0.211362  -0.239172   0.045804  -0.151053   0.058692   0.067486   0.265288  -0.314861   0.672192   0.815671   0.345422   1.895781   0.007221   0.320359  -0.003265   0.354727  -0.204728  -2.872970   0.302438   0.235825  -0.622040   1.047343  -0.125306  -1.909726   0.007501  -0.339369   0.004259   0.420343   0.014388   2.815563  -0.683924  -0.092698  -0.158146   0.941453   0.001568   0.000404  -0.778911  -0.539072  -0.021900  -0.228723  -0.000424   0.000971  -0.861534  -0.148156   0.226666   1.173240  -0.001996  -0.000013  -0.888685   0.343814   0.138423   0.400588  -0.001159   0.001190
 -2.376669   0.927603   3.975148   0.666223   0.299123  -0.080984  -0.930111   0.126372  -0.003632   0.438227  -0.481183   0.107455  -0.290510   0.113918   0.135916   0.527766  -0.600565   2.132313   1.605788   0.722842   4.426748   0.016717   0.630635  -0.005686   0.738161  -0.331769  -4.957255   0.602074   0.436146  -2.018202   2.073399  -0.296210  -4.448034   0.017231  -0.665539   0.007438   0.883255  -0.041959   4.849120  -1.286219  -0.180765  -0.474899   1.921152   0.004346   0.000793  -1.506180  -1.050021  -0.051597  -0.479010  -0.001196   0.001738  -1.681654  -0.288828   0.621058   2.370865  -0.005288   0.000352  -1.717416   0.669612   0.275226   0.741386  -0.002366   0.002002
 -2.376610   0.928856   3.974950   0.951724   0.445760  -0.132828  -1.348050   0.186729   0.007074   0.651418  -0.708167   0.176162  -0.418946   0.165532   0.199918   0.781166  -0.845038   4.060862   2.362606   1.142499   7.374504   0.026008   0.922837  -0.007281   1.108431  -0.420078  -6.125214   0.886330   0.597319  -3.875236   3.071394  -0.525858  -7.397791   0.026733  -0.973076   0.009603   1.333634  -0.131178   5.985538  -1.821657  -0.258593  -0.928045   2.857505   0.007578   0.000951  -2.184639  -1.528575  -0.086607  -0.714963  -0.002071   0.002224  -2.455758  -0.425558   1.142936   3.497345  -0.008928   0.000815  -2.491487   0.974283   0.408826   1.047567  -0.003503   0.002517
 -2.376529   0.929803   3.974859   1.225373   0.575253  -0.186181  -1.745434   0.245782   0.025153   0.843699  -0.917722   0.249121  -0.538781   0.213737   0.259406   1.025819  -1.051803   6.243570   3.084872   1.610271  10.599042   0.034070   1.198670  -0.008259   1.465510  -0.472468  -6.616729   1.154234   0.726337  -5.982533   4.041671  -0.819745 -10.620100   0.034957  -1.263652   0.011007   1.768809  -0.251136   6.462335  -2.303209  -0.326079  -1.492047   3.740141   0.010786   0.000845  -2.818507  -1.976507  -0.125739  -0.937659  -0.002938   0.002517  -3.188609  -0.561260   1.763332   4.545643  -0.012414   0.001256  -3.215494   1.258716   0.538695   1.320769  -0.004461   0.002785
 -2.376433   0.930198   3.974872   1.489285   0.684405  -0.239341  -2.124491   0.304065   0.049568   1.014500  -1.109985   0.324924  -0.650406   0.258713   0.314816   1.260950  -1.227188   8.539189   3.770540   2.126012  14.005276   0.040487   1.458915  -0.008780   1.810238  -0.493351  -6.657686   1.405138   0.830757  -8.200855   4.982917  -1.177828 -14.020167   0.041475  -1.538035   0.011844   2.188131  -0.397074   6.501563  -2.737885  -0.383426  -2.143143   4.569787   0.013687   0.000524  -3.410913  -2.395555  -0.167943  -1.146824  -0.003723   0.002672  -3.881545  -0.697579   2.458833   5.520415  -0.015482   0.001631  -3.892703   1.523987   0.664424   1.565191  -0.005204   0.002871
 -2.376375   0.929845   3.974983   1.743245   0.774516  -0.288026  -2.486744   0.362420   0.071475   1.165304  -1.284990   0.386439  -0.754023   0.300485   0.371143   1.486452  -1.378988  10.863844   4.417504   2.686299  17.535537   0.045149   1.703622  -0.008962   2.142207  -0.490625  -6.405003   1.640737   0.919024 -10.493960   5.841984  -1.576599 -17.372067   0.046054  -1.797400   0.012140   2.592565  -0.570517   6.179658  -3.130252  -0.431165  -2.859305   5.349331   0.016101   0.000072  -3.964702  -2.787445  -0.212395  -1.342788  -0.004375   0.002722  -4.535376  -0.835363   3.210865   6.427716  -0.018039   0.001943  -4.526031   1.771137   0.785634   1.784670  -0.005740   0.002832
 -2.376307   0.928068   3.974697   1.937378   0.784293  -0.327712  -2.609375   0.404723   0.146501   1.204632  -1.377457   0.366776  -1.022361   0.194903   0.380464   1.647481  -1.234656  12.611850   4.975881   3.195580  20.980286   0.043498   1.863769  -0.008525   2.375444  -0.521546  -5.094144   1.788229   0.974428 -12.065905   6.424259  -2.147696 -20.634406   0.042427  -1.928342   0.010835   2.887561  -0.692610   4.771599  -3.506657  -0.637317  -3.518365   6.028501   0.016853  -0.001724  -4.342235  -3.223571  -0.088109  -1.330795  -0.003439   0.002111  -5.004053  -0.721353   3.882652   6.756158  -0.016194   0.002278  -4.920212   2.043978   0.942205   1.953614  -0.005711   0.002978
 -2.376240   0.925064   3.974166   2.133704   0.799995  -0.368324  -2.682407   0.438907   0.227040   1.238252  -1.456456   0.353324  -1.286132   0.089593   0.377918   1.760503  -1.013869  14.093707   5.450233   3.751202  24.095599   0.041549   2.028671  -0.008229   2.602520  -0.509551  -3.823418   1.898318   0.959703 -13.342240   6.921760  -2.747922 -23.549289   0.038964  -2.064284   0.009805   3.163007  -0.849020   3.448743  -3.895507  -0.838567  -4.113051   6.638063   0.016676  -0.002942  -4.693019  -3.633793   0.024807  -1.303721  -0.002625   0.001545  -5.489764  -0.611037   4.479729   6.978493  -0.013998   0.002310  -5.292879   2.298910   1.090651   2.107293  -0.005465   0.003015
 -2.376163   0.920954   3.973527   2.321246   0.823611  -0.411200  -2.724461   0.473194   0.312677   1.275072  -1.526160   0.353572  -1.530168  -0.009124   0.372726   1.835405  -0.760606  15.372368   5.851300   4.323897  26.925701   0.039405   2.196196  -0.007989   2.827623  -0.434105  -2.753340   1.979366   0.905123 -14.404679   7.347727  -3.352926 -26.172997   0.035622  -2.201587   0.008934   3.429386  -1.048965   2.362810  -4.270889  -1.023399  -4.646390   7.194482   0.015955  -0.003662  -5.020632  -4.016965   0.127771  -1.278118  -0.001994   0.001111  -5.978800  -0.512782   5.007499   7.158290  -0.011929   0.002226  -5.642913   2.535336   1.230653   2.245913  -0.005081   0.002956
 -2.376072   0.915824   3.972866   2.498155   0.853708  -0.455865  -2.748441   0.509206   0.403740   1.313258  -1.586883   0.366908  -1.754811  -0.101200   0.367204   1.882450  -0.498240  16.488836   6.190683   4.892904  29.509973   0.037021   2.360873  -0.007726   3.046755  -0.317495  -1.861970   2.040114   0.833003 -15.302095   7.714170  -3.944776 -28.550981   0.032339  -2.335339   0.008135   3.684487  -1.270929   1.479872  -4.624057  -1.193172  -5.123013   7.707964   0.014924  -0.004026  -5.326440  -4.374641   0.221861  -1.254143  -0.001505   0.000781  -6.459679  -0.425068   5.470524   7.311673  -0.010079   0.002088  -5.970847   2.754600   1.362477   2.372870  -0.004629   0.002839
 -2.376111   0.915779   3.972488   2.570107   1.110277  -0.350260  -2.722709   0.471059   0.351379   1.390191  -1.698468   0.343553  -1.960588  -0.190083   0.359775   1.920352  -0.244155  17.840644   6.477494   5.444316  31.995154   0.034726   2.510079  -0.007400   3.253434  -0.239706  -1.168294   2.065212   0.717580 -16.388072   8.014658  -4.543015 -30.794519   0.029652  -2.464034   0.007326   3.928333  -1.455917   0.856381  -4.974791  -1.244503  -5.283024   8.314493   0.012160  -0.002499  -5.626033  -4.540419   0.594143  -1.085171  -0.001702   0.000618  -7.065448  -0.243440   5.393929   8.089755  -0.008028   0.005042  -5.640191   3.037910   1.286470   2.575797  -0.003650   0.003600
